<svg height="1000" width="1000" viewBox="0 0 1000 1000" xmlns="http://www.w3.org/2000/svg" version="1.2">
	<title>32587_Better_Tickets_LOGO_SP_SG-ai</title>
	<defs>
		<linearGradient gradientUnits="userSpaceOnUse" y2="164.3" x2="825" y1="164.3" x1="175" id="g1">
			<stop stop-color="#ff3742" offset="0"></stop>
			<stop stop-color="#cc2a40" offset="1"></stop>
		</linearGradient>
		<linearGradient gradientUnits="userSpaceOnUse" y2="299.8" x2="635.6" y1="299.8" x1="443.2" id="g2">
			<stop stop-color="#ff3742" offset="0"></stop>
			<stop stop-color="#cc2a40" offset="1"></stop>
		</linearGradient>
		<linearGradient gradientUnits="userSpaceOnUse" y2="403.9" x2="535.5" y1="403.9" x1="251.6" id="g3">
			<stop stop-color="#ff3742" offset="0"></stop>
			<stop stop-color="#cc2a40" offset="1"></stop>
		</linearGradient>
	</defs>
	<style>
		.s0 { fill: #181d23 } 
		.s1 { fill: url(#g1) } 
		.s2 { fill: url(#g2) } 
		.s3 { fill: url(#g3) } 
		.s4 { fill: #ffffff } 
	</style>
	<g id="Layer 1">
		<g id="<Group>">
			<path d="m1000 1000h-1000v-1000h1000z" class="s0" id="<Path>"></path>
		</g>
		<g id="<Group>">
			<g id="<Group>">
				<path d="m175 185.7c0-5.9 4.8-10.7 10.7-10.7h628.6c5.9 0 10.7 4.8 10.7 10.7v628.6c0 5.9-4.8 10.7-10.7 10.7h-628.6c-5.9 0-10.7-4.8-10.7-10.7zm57.3 20.2c-14.5 0-26.4 11.9-26.4 26.4v535.4c0 14.5 11.9 26.4 26.4 26.4h535.4c14.5 0 26.4-11.9 26.4-26.4v-535.4c0-14.5-11.9-26.4-26.4-26.4z" class="s1" fill-rule="evenodd" id="<Compound Path>"></path>
			</g>
			<path d="m606.2 592c-9.1 0-16.1-2.6-21.4-8c-5.4-5.3-8-12.3-8-21.4v-167c0-16.7-9.5-26.3-26.3-26.3h-77.9c-9.1 0-16.1-2.6-21.4-8c-5.4-5.3-8-12.3-8-21.4c0-8.9 2.6-15.8 8-21.3c5.3-5.4 12.4-8.1 21.4-8.1h133.6c9.1 0 16.1 2.7 21.4 8.1c5.4 5.5 8 12.4 8 21.3v222.7c0 9.1-2.6 16.1-7.9 21.4c-5.4 5.4-12.4 8-21.5 8z" class="s2" id="<Compound Path>"></path>
			<path d="m281 696.1q-3.5 0-6.6-0.5c-6-1-10.8-3.4-14.8-7.4c-4.7-4.7-7.2-10.5-7.8-18q-0.2-1.7-0.2-3.5v-111.3c0-9.1 2.6-16.1 8-21.5c5.3-5.3 12.3-7.9 21.4-7.9c9.1 0 16.1 2.6 21.5 7.9c5.3 5.4 7.9 12.4 7.9 21.5v82h140c8.4 0 15-2.4 19.5-7.1c4.7-4.7 7-11.4 6.8-20c-0.2-14.1-12-25.5-26.3-25.5h-58c-9.1 0-16.1-2.6-21.5-8c-5.3-5.3-7.9-12.3-7.9-21.4c0-9.1 2.6-16.1 7.9-21.5c5.4-5.3 12.4-7.9 21.5-7.9h58c8.4 0 15-2.4 19.5-7c4.7-4.7 7-11.5 6.8-20c-0.2-14.1-12-25.6-26.3-25.6h-56.8c-16.2 0-29.4-13.2-29.4-29.4c0-16.2 13.2-29.3 29.4-29.3h112.5c8.9 0 15.8 2.6 21.3 7.9c5.5 5.4 8.1 12.4 8.1 21.4v222.7c0 9.1-2.6 16.1-8.1 21.4c-5.5 5.4-12.4 8-21.3 8z" class="s3" id="<Path>"></path>
			<path d="m280.2 473.4c-9.1 0-16.1-2.6-21.4-7.9c-5.4-5.4-8-12.4-8-21.5c0-9 2.6-16 8-21.4c5.3-5.4 12.3-7.9 21.4-7.9h22.3c9.1 0 16.1 2.5 21.4 7.9c5.4 5.4 8 12.4 8 21.4c0 9.1-2.6 16.1-8 21.5c-5.3 5.3-12.3 7.9-21.4 7.9z" class="s4" id="<Path>"></path>
			<g id="<Group>">
				<path d="m703.5 369.3c-9 0-16.1-2.6-21.4-8c-5.3-5.3-7.9-12.3-7.9-21.4c0-9.1 2.6-16.1 7.9-21.5c5.4-5.3 12.4-7.9 21.4-7.9h22.3c9.1 0 16.1 2.6 21.5 7.9c5.3 5.4 7.9 12.4 7.9 21.5c0 9.1-2.6 16.1-7.9 21.4c-5.4 5.4-12.4 8-21.5 8z" class="s4" id="<Path>"></path>
			</g>
		</g>
	</g>
</svg>