<?xml version="1.0" encoding="UTF-8" standalone="no"?><!-- Generator: Gravit.io --><svg xmlns="http://www.w3.org/2000/svg" xmlns:xlink="http://www.w3.org/1999/xlink" style="isolation:isolate" viewBox="753.818 -523.33 611.765 611.765" width="611.765pt" height="611.765pt"><defs><clipPath id="_clipPath_rg66ybhs12MSUhiwd8suQ6wNAKIpUKKE"><rect x="753.818" y="-523.33" width="611.765" height="611.765"/></clipPath></defs><g clip-path="url(#_clipPath_rg66ybhs12MSUhiwd8suQ6wNAKIpUKKE)"><rect x="753.818" y="-523.33" width="611.765" height="611.765" transform="matrix(1,0,0,1,0,0)" fill="rgb(35,41,47)"/><g style="isolation:isolate"><circle vector-effect="non-scaling-stroke" cx="1059.6999966869985" cy="-217.44798274881379" r="300.9267297187055" fill="rgb(35,41,47)"/><g clip-path="url(#_clipPath_NnvebICTwEosqk7reu4ZaiHhXvfsbQQ3)"><text transform="matrix(0.5,0.866,-0.866,0.5,1115.801,-368.356)" style="font-family:'Nunito';font-weight:400;font-size:72px;font-style:normal;fill:#ffffff;stroke:none;">B</text></g><defs><clipPath id="_clipPath_NnvebICTwEosqk7reu4ZaiHhXvfsbQQ3"><rect x="0" y="0" width="51" height="98.208" transform="matrix(0.5,0.866,-0.866,0.5,1178.84,-404.752)"/></clipPath></defs><g clip-path="url(#_clipPath_NudYRmG3Dj1LT02uMFvYDANNXFmb7O5S)"><text transform="matrix(0.5,0.866,-0.866,0.5,1198.266,-225.523)" style="font-family:'Nunito';font-weight:400;font-size:72px;font-style:normal;fill:#ffffff;stroke:none;">T</text></g><defs><clipPath id="_clipPath_NudYRmG3Dj1LT02uMFvYDANNXFmb7O5S"><rect x="0" y="0" width="46" height="98.208" transform="matrix(0.5,0.866,-0.866,0.5,1261.305,-261.919)"/></clipPath></defs><defs><filter id="r2i9lXAnAUshsCHUetyIb3NEEVj38GbS" x="-200%" y="-200%" width="400%" height="400%" filterUnits="objectBoundingBox" color-interpolation-filters="sRGB"><feOffset xmlns="http://www.w3.org/2000/svg" in="SourceGraphic" dx="2" dy="2"/><feGaussianBlur xmlns="http://www.w3.org/2000/svg" stdDeviation="2.146804531419514" result="pf_100_offsetBlur"/><feComposite xmlns="http://www.w3.org/2000/svg" in="SourceGraphic" in2="pf_100_offsetBlur" result="pf_100_inverse" operator="out"/><feFlood xmlns="http://www.w3.org/2000/svg" flood-color="#000000" flood-opacity="0.91" result="pf_100_color"/><feComposite xmlns="http://www.w3.org/2000/svg" in="pf_100_color" in2="pf_100_inverse" operator="in" result="pf_100_shadow"/><feComposite xmlns="http://www.w3.org/2000/svg" in="pf_100_shadow" in2="SourceGraphic" operator="over"/></filter></defs><g filter="url(#r2i9lXAnAUshsCHUetyIb3NEEVj38GbS)"><path d=" M 1047.589 -381.669 L 1059.414 -366.788 C 1061.561 -363.87 1065.532 -363.392 1068.303 -364.992 L 1069.343 -365.592 C 1072.607 -367.938 1072.885 -372.256 1070.539 -375.52 L 1058.714 -390.401 L 1133.813 -449.925 L 1164.248 -411.61 L 876.382 -245.41 L 1047.589 -381.669 L 1047.589 -381.669 L 1047.589 -381.669 L 1047.589 -381.669 L 1047.589 -381.669 L 1047.589 -381.669 L 1047.589 -381.669 Z  M 1162.756 -245.395 C 1159.292 -243.395 1158.467 -239.224 1159.92 -235.906 L 1183.12 -195.722 C 1185.12 -192.258 1189.492 -191.087 1192.956 -193.087 C 1196.42 -195.087 1197.591 -199.458 1195.591 -202.922 L 1172.591 -242.76 C 1170.591 -246.224 1166.22 -247.395 1162.756 -245.395 L 1162.756 -245.395 L 1162.756 -245.395 L 1162.756 -245.395 L 1162.756 -245.395 L 1162.756 -245.395 Z  M 1121.956 -316.063 C 1118.492 -314.063 1117.667 -309.891 1119.12 -306.574 L 1142.32 -266.39 C 1144.32 -262.926 1148.692 -261.755 1152.156 -263.755 C 1155.62 -265.755 1156.791 -270.126 1154.791 -273.59 L 1131.591 -313.774 C 1129.791 -316.891 1125.42 -318.063 1121.956 -316.063 L 1121.956 -316.063 L 1121.956 -316.063 L 1121.956 -316.063 L 1121.956 -316.063 Z  M 903.082 -176.763 L 978.253 -220.163 C 981.717 -222.163 982.888 -226.534 980.888 -229.998 C 978.888 -233.463 974.717 -234.287 971.253 -232.287 L 896.082 -188.887 C 892.618 -186.887 891.447 -182.516 893.447 -179.052 C 895.447 -175.588 899.618 -174.763 903.082 -176.763 L 903.082 -176.763 L 903.082 -176.763 L 903.082 -176.763 Z  M 1068.624 -237.236 L 918.282 -150.436 C 914.818 -148.436 913.647 -144.065 915.647 -140.601 C 917.647 -137.136 922.018 -135.965 925.482 -137.965 L 1075.824 -224.765 C 1079.288 -226.765 1080.459 -231.136 1078.459 -234.601 C 1076.459 -238.065 1072.088 -239.236 1068.624 -237.236 L 1068.624 -237.236 L 1068.624 -237.236 Z  M 1090.824 -198.784 L 940.482 -111.984 C 937.018 -109.984 935.847 -105.613 937.847 -102.149 C 939.847 -98.685 944.218 -97.514 947.682 -99.514 L 1098.024 -186.314 C 1101.488 -188.314 1102.659 -192.685 1100.659 -196.149 C 1098.659 -199.613 1094.288 -200.784 1090.824 -198.784 L 1090.824 -198.784 Z  M 1275.911 -271.004 L 1312.711 -207.264 L 1222.991 -155.464 L 1213.391 -172.092 C 1211.391 -175.556 1207.02 -176.727 1203.556 -174.727 C 1200.092 -172.727 1198.92 -168.356 1200.92 -164.892 L 1210.52 -148.264 L 926.464 15.736 L 889.664 -48.004 C 909.142 -63.868 912.437 -92.56 896.573 -112.037 C 884.002 -127.411 863.038 -133.321 844.664 -125.946 L 807.864 -189.685 L 1092.267 -353.885 L 1101.667 -337.604 C 1103.667 -334.14 1108.038 -332.969 1111.502 -334.969 C 1114.966 -336.969 1116.138 -341.34 1114.138 -344.804 L 1104.538 -361.432 L 1194.258 -413.232 L 1231.058 -349.492 C 1211.58 -333.628 1208.285 -304.936 1224.149 -285.459 C 1236.227 -269.339 1256.991 -263.775 1275.911 -271.004 L 1275.911 -271.004 L 1275.911 -271.004 L 1275.911 -271.004 L 1275.911 -271.004 L 1275.911 -271.004 L 1275.911 -271.004 L 1275.911 -271.004 Z  M 1243.4 -340.914 C 1246.865 -342.914 1247.689 -347.086 1246.236 -350.403 L 1202.636 -425.921 C 1200.636 -429.385 1196.465 -430.21 1192.8 -428.556 L 1176.173 -418.956 L 1140.298 -464.293 C 1137.952 -467.557 1133.634 -467.835 1130.37 -465.489 L 1044.493 -397.433 L 1044.146 -397.233 L 793.59 -197.61 C 793.59 -197.61 788.993 -193.571 791.793 -188.721 L 835.193 -113.55 C 837.193 -110.086 841.365 -109.261 844.682 -110.714 C 859.924 -119.514 879.049 -114.39 887.849 -99.148 C 896.649 -83.906 891.524 -64.782 876.282 -55.982 C 872.818 -53.982 871.993 -49.81 873.447 -46.493 L 916.847 28.678 C 918.847 32.142 923.018 32.967 926.682 31.314 L 1325.054 -198.686 C 1328.518 -200.686 1329.343 -204.858 1327.689 -208.522 L 1284.489 -283.346 C 1282.489 -286.81 1278.318 -287.635 1275 -286.182 C 1259.758 -277.382 1240.634 -282.506 1231.834 -297.748 C 1223.034 -312.99 1228.158 -332.114 1243.4 -340.914 L 1243.4 -340.914 L 1243.4 -340.914 L 1243.4 -340.914 L 1243.4 -340.914 L 1243.4 -340.914 L 1243.4 -340.914 L 1243.4 -340.914 Z  M 1113.024 -160.333 L 962.682 -73.533 C 959.218 -71.533 958.047 -67.162 960.047 -63.698 C 962.047 -60.233 966.418 -59.062 969.882 -61.062 L 1120.224 -147.862 C 1123.688 -149.862 1124.859 -154.233 1122.859 -157.698 C 1120.859 -161.162 1116.488 -162.333 1113.024 -160.333 Z " fill-rule="evenodd" fill="rgb(128,118,73)"/></g></g></g></svg>